HIERARCHY
ROOT ui
{
	 OFFSET 0 0 0
	 CHANNELS 3 XPosition YPosition Z Position
	 EndSite
	 {
	 OFFSET 0 -1 0
	 }
}
ROOT li
{
	 OFFSET 0 0 0
	 CHANNELS 3 XPosition YPosition Z Position
	 EndSite
	 {
	 OFFSET 0 -1 0
	 }
}
ROOT ul
{
	 OFFSET 0 0 0
	 CHANNELS 3 XPosition YPosition Z Position
	 EndSite
	 {
	 OFFSET 0 -1 0
	 }
}
ROOT ll
{
	 OFFSET 0 0 0
	 CHANNELS 3 XPosition YPosition Z Position
	 EndSite
	 {
	 OFFSET 0 -1 0
	 }
}
ROOT tt
{
	 OFFSET 0 0 0
	 CHANNELS 3 XPosition YPosition Z Position
	 EndSite
	 {
	 OFFSET 0 -1 0
	 }
}
ROOT tb
{
	 OFFSET 0 0 0
	 CHANNELS 3 XPosition YPosition Z Position
	 EndSite
	 {
	 OFFSET 0 -1 0
	 }
}
ROOT td
{
	 OFFSET 0 0 0
	 CHANNELS 3 XPosition YPosition Z Position
	 EndSite
	 {
	 OFFSET 0 -1 0
	 }
}
ROOT v
{
	 OFFSET 0 0 0
	 CHANNELS 3 XPosition YPosition Z Position
	 EndSite
	 {
	 OFFSET 0 -1 0
	 }
}
ROOT bn
{
	 OFFSET 0 0 0
	 CHANNELS 3 XPosition YPosition Z Position
	 EndSite
	 {
	 OFFSET 0 -1 0
	 }
}
MOTION
Frames: 24
Frame Time: 0.002
-4.1803199052810666E-4	-0.0014511510133743287	0		0.44059085083007815	-2.4239853515625	0		-1.10295263671875	0.062200149536132815	0		-0.8871842041015625	-2.517572021484375	0		1.3438841552734375	-0.7330196533203125	0		3.12430126953125	-0.17696986389160158	0		4.61593798828125	-0.10166938018798828	0		5.5663486328125	0.201884033203125	0		-0.36051251220703123	5.8515537109375	0		
-0.022293188095092772	0.0026007039546966553	0		0.4453851623535156	-2.419210693359375	0		-1.0158703002929688	0.05953556823730469	0		-0.8553558349609375	-2.506827880859375	0		1.390912841796875	-0.7287061157226562	0		3.13560009765625	-0.14861778259277345	0		4.62106396484375	-0.09647655487060547	0		5.56166845703125	0.22602362060546874	0		-0.34352520751953125	5.86135205078125	0		
-0.02121790885925293	0.0024570209980010987	0		0.4751239013671875	-2.419654541015625	0		-1.1027030029296876	0.07024404907226563	0		-0.9015455322265625	-2.496474609375	0		1.3509044189453125	-0.726712646484375	0		3.126419189453125	-0.17811686706542967	0		4.61719873046875	-0.08822334289550782	0		5.5677099609375	0.21706582641601563	0		-0.3075904846191406	5.8669765625	0		
-0.02017912483215332	0.002300326108932495	0		0.473810791015625	-2.42286181640625	0		-1.0296905517578125	0.06563899993896484	0		-0.818970947265625	-2.51218896484375	0		1.3877691650390624	-0.7363516845703125	0		3.14665576171875	-0.1518565673828125	0		4.623150390625	-0.09804757690429687	0		5.57284326171875	0.22412086486816407	0		-0.18568101501464843	5.8758671875	0		
-0.022215896606445313	-8.423720002174377E-4	0		0.46353582763671874	-2.41700146484375	0		-1.0286939697265625	0.06560173034667968	0		-0.9011962280273438	-2.498557861328125	0		1.3886617431640624	-0.736701904296875	0		3.117524658203125	-0.16418247985839843	0		4.6320751953125	-0.10488358306884765	0		5.56573486328125	0.20829641723632814	0		-0.31909530639648437	5.856853515625	0		
-0.021287168502807617	-0.001019811987876892	0		0.4751172180175781	-2.423331787109375	0		-1.0158426513671874	0.05544578552246094	0		-0.81768701171875	-2.51233349609375	0		1.3925343017578125	-0.7330777587890625	0		3.112492919921875	-0.157693603515625	0		4.61405126953125	-0.09846954345703125	0		5.56581689453125	0.22244265747070313	0		-0.35050762939453123	5.84999365234375	0		
-0.004447682857513428	-0.004343533039093018	0		0.4606805419921875	-2.426445068359375	0		-1.0769334716796874	0.05990835952758789	0		-0.8781062622070313	-2.511902099609375	0		1.35738671875	-0.7251152954101563	0		3.1431845703125	-0.17649624633789063	0		4.61895751953125	-0.09322075653076171	0		5.5816298828125	0.21248817443847656	0		-0.33190350341796876	5.85769873046875	0		
0.0094072904586792	0.0013486499786376953	0		0.5072698364257813	-2.422090087890625	0		-1.0101260986328124	0.05925129699707031	0		-0.8155527954101562	-2.510545166015625	0		1.399103515625	-0.72681103515625	0		3.138222900390625	-0.14797134399414064	0		4.61975146484375	-0.09390290069580078	0		5.57653466796875	0.22075645446777345	0		-0.29841299438476565	5.86525927734375	0		
-0.015848546981811523	0.001378559947013855	0		0.449792236328125	-2.420825439453125	0		-1.0212886352539063	0.06925479125976562	0		-0.8530396118164062	-2.50933056640625	0		1.39471533203125	-0.73409912109375	0		3.109732421875	-0.17321328735351563	0		4.6225029296875	-0.09256121063232423	0		5.573228515625	0.21205995178222656	0		-0.31219656372070315	5.85522216796875	0		
0.010835586547851562	9.477580189704895E-4	0		0.5021983642578125	-2.429527099609375	0		-1.0246331787109375	0.06517684936523438	0		-0.81963134765625	-2.51675244140625	0		1.3863651123046874	-0.7313379516601562	0		3.121464599609375	-0.16677615356445313	0		4.62404638671875	-0.1081625747680664	0		5.569869140625	0.20442208862304687	0		-0.17782350158691407	5.87586181640625	0		
-0.014533150672912597	9.802939891815185E-4	0		0.4507232360839844	-2.42129736328125	0		-1.0880765380859374	0.05662753677368164	0		-0.88809423828125	-2.506272705078125	0		1.3959140625	-0.7347212524414063	0		3.148946533203125	-0.18244863891601562	0		4.6136689453125	-0.10860511779785156	0		5.57049658203125	0.20181101989746095	0		-0.34499569702148436	5.850185546875	0		
0.012044706344604493	5.477200150489807E-4	0		0.4801491394042969	-2.421786376953125	0		-1.0074702758789063	0.05877359771728516	0		-0.8876724853515625	-2.506415283203125	0		1.401510009765625	-0.728052490234375	0		3.12777734375	-0.15364645385742187	0		4.61743115234375	-0.08812057495117187	0		5.58515966796875	0.2091365966796875	0		-0.2939164733886719	5.8645556640625	0		
-0.013422603607177735	5.889430046081543E-4	0		0.4535743103027344	-2.419760498046875	0		-1.088877685546875	0.06537702941894531	0		-0.8492816772460937	-2.507909423828125	0		1.4020037841796875	-0.7283200073242188	0		3.13403662109375	-0.18305693054199218	0		4.62982080078125	-0.10366356658935547	0		5.5857021484375	0.2086519317626953	0		-0.3281244812011719	5.85969482421875	0		
0.01306490135192871	1.6205300390720366E-4	0		0.5058962097167968	-2.427444091796875	0		-1.012398681640625	0.063537841796875	0		-0.8968221435546875	-2.499625732421875	0		1.3994256591796874	-0.7325404663085937	0		3.153763671875	-0.1565517120361328	0		4.63030517578125	-0.10404569244384766	0		5.576208984375	0.2093214569091797	0		-0.15914358520507813	5.88598193359375	0		
-0.01248408317565918	2.1650500595569612E-4	0		0.45231689453125	-2.422148681640625	0		-1.0219371337890626	0.06447817993164062	0		-0.8285372924804687	-2.509404052734375	0		1.3888526611328125	-0.732667724609375	0		3.124099853515625	-0.16856016540527344	0		4.6217705078125	-0.10229441070556641	0		5.58073876953125	0.21692311096191405	0		-0.30680252075195313	5.854162109375	0		
0.013930443763732911	-1.9852499663829804E-4	0		0.5046000671386719	-2.430813232421875	0		-1.0055758666992187	0.058178977966308595	0		-0.8861595458984375	-2.507027587890625	0		1.359270751953125	-0.7306007080078125	0		3.118576171875	-0.16175462341308594	0		4.6311650390625	-0.10466147613525391	0		5.57302197265625	0.20169047546386717	0		-0.34129440307617187	5.8493154296875	0		
-0.011682900428771972	-1.2693899869918823E-4	0		0.45705841064453123	-2.418547607421875	0		-1.0752232666015624	0.054672752380371094	0		-0.8478258666992188	-2.50853076171875	0		1.403660888671875	-0.729196044921875	0		3.14473681640625	-0.18621186828613281	0		4.6254755859375	-0.11284937286376953	0		5.58237353515625	0.19734881591796874	0		-0.30964862060546877	5.86686669921875	0		
0.021739633560180664	0.006410447120666504	0		0.5113435668945312	-2.42420849609375	0		-1.010782958984375	0.06293550872802735	0		-0.8814457397460937	-2.503366455078125	0		1.4040125732421875	-0.729369140625	0		3.1434169921875	-0.1513865966796875	0		4.63596240234375	-0.09914968109130859	0		5.58191015625	0.2161395263671875	0		-0.29025506591796874	5.863537109375	0		
-0.01098719882965088	-4.3262699246406555E-4	0		0.4806477966308594	-2.4260732421875	0		-1.0204365844726562	0.06388619995117187	0		-0.8122200927734375	-2.514145263671875	0		1.3933355712890625	-0.7304240112304687	0		3.11452294921875	-0.1762850799560547	0		4.62125244140625	-0.10418742370605469	0		5.5591845703125	0.20916986083984376	0		-0.3249272155761719	5.85871435546875	0		
0.01532699966430664	-8.099650144577027E-4	0		0.4720399169921875	-2.417129150390625	0		-1.0141675415039062	0.058696475982666016	0		-0.8968065185546875	-2.50249609375	0		1.39364892578125	-0.730565185546875	0		3.1419013671875	-0.16968051147460939	0		4.62357666015625	-0.10335595703125	0		5.57442578125	0.20087913513183595	0		-0.30464285278320313	5.8533935546875	0		
-0.01037650966644287	-6.969980001449585E-4	0		0.45427999877929687	-2.42308984375	0		-1.01982568359375	0.06362488174438477	0		-0.8116170043945312	-2.5144072265625	0		1.399888427734375	-0.736747802734375	0		3.131132568359375	-0.17670661926269532	0		4.61779833984375	-0.1114285888671875	0		5.5597958984375	0.20888862609863282	0		-0.30434579467773437	5.8532666015625	0		
0.015898244857788086	-0.001053866982460022	0		0.45657742309570315	-2.421224609375	0		-1.079593505859375	0.059060718536376955	0		-0.8822609252929687	-2.5058701171875	0		1.405229736328125	-0.7299092407226563	0		3.147601806640625	-0.15596791076660158	0		4.63312939453125	-0.10567804718017579	0		5.5890517578125	0.20651153564453126	0		-0.30992974853515626	5.86920361328125	0		
-0.0027803709506988524	0.006014545917510986	0		0.4858374938964844	-2.421597900390625	0		-1.0093037719726563	0.06230552673339844	0		-0.8460286865234375	-2.509310791015625	0		1.4054873046875	-0.7300128173828125	0		3.125646728515625	-0.1788636474609375	0		4.6215244140625	-0.09066442108154296	0		5.574390625	0.21555519104003906	0		-0.32378759765625	5.85822607421875	0		
0.01638878059387207	-0.0012571200132369994	0		0.4550609436035156	-2.423407470703125	0		-1.0190596923828126	0.0632985725402832	0		-0.8837770385742187	-2.50805908203125	0		1.397742431640625	-0.7280322875976563	0		3.15707421875	-0.1582394561767578	0		4.62956494140625	-0.11182254028320313	0		5.57955078125	0.20742657470703124	0		-0.289513671875	5.86381494140625	0		
